# Blender 4.0.2
# www.blender.org
mtllib bloodcube.mtl
o Cube
v 1.207107 0.292893 -1.207107
v -0.500000 -0.707107 -1.500000
v 1.500000 -0.707107 0.500000
v -0.207107 -1.707107 0.207107
v 0.207107 1.707107 -0.207107
v -1.500000 0.707107 -0.500000
v 0.500000 0.707107 1.500000
v -1.207107 -0.292893 1.207107
vn 0.8536 0.5000 0.1464
vn 0.1464 -0.5000 0.8536
vn -0.5000 0.7071 0.5000
vn -0.8536 -0.5000 -0.1464
vn 0.5000 -0.7071 -0.5000
vn -0.1464 0.5000 -0.8536
vt 0.625000 0.500000
vt 0.875000 0.500000
vt 0.875000 0.750000
vt 0.625000 0.750000
vt 0.375000 0.750000
vt 0.625000 1.000000
vt 0.375000 1.000000
vt 0.375000 0.000000
vt 0.625000 0.000000
vt 0.625000 0.250000
vt 0.375000 0.250000
vt 0.125000 0.500000
vt 0.375000 0.500000
vt 0.125000 0.750000
s 0
usemtl Material
f 1/1/1 5/2/1 7/3/1 3/4/1
f 4/5/2 3/4/2 7/6/2 8/7/2
f 8/8/3 7/9/3 5/10/3 6/11/3
f 6/12/4 2/13/4 4/5/4 8/14/4
f 2/13/5 1/1/5 3/4/5 4/5/5
f 6/11/6 5/10/6 1/1/6 2/13/6
