# Blender 4.0.2
# www.blender.org
mtllib the_ring.mtl
o Circle
v 0.000000 0.000000 -1.400000
v -0.273126 0.000000 -1.373099
v -0.535757 0.000000 -1.293431
v -0.777798 0.000000 -1.164057
v -0.989950 0.000000 -0.989950
v -1.164057 0.000000 -0.777798
v -1.293431 0.000000 -0.535757
v -1.373099 0.000000 -0.273126
v -1.400000 0.000000 0.000000
v -1.373099 0.000000 0.273126
v -1.293431 0.000000 0.535757
v -1.164057 0.000000 0.777798
v -0.989950 0.000000 0.989950
v -0.777798 0.000000 1.164057
v -0.535757 0.000000 1.293431
v -0.273126 0.000000 1.373099
v 0.000000 0.000000 1.400000
v 0.273126 0.000000 1.373099
v 0.535757 0.000000 1.293431
v 0.777798 0.000000 1.164057
v 0.989950 0.000000 0.989950
v 1.164057 0.000000 0.777798
v 1.293431 0.000000 0.535757
v 1.373099 0.000000 0.273126
v 1.400000 0.000000 0.000000
v 1.373099 0.000000 -0.273126
v 1.293431 0.000000 -0.535757
v 1.164057 0.000000 -0.777798
v 0.989950 0.000000 -0.989950
v 0.777798 0.000000 -1.164057
v 0.535757 0.000000 -1.293431
v 0.273126 0.000000 -1.373099
v 0.000000 0.000000 -2.798095
v -0.545881 0.000000 -2.744330
v -1.070785 0.000000 -2.585102
v -1.554538 0.000000 -2.326530
v -1.978552 0.000000 -1.978552
v -2.326530 0.000000 -1.554538
v -2.585102 0.000000 -1.070785
v -2.744330 0.000000 -0.545881
v -2.798095 0.000000 -0.000000
v -2.744330 0.000000 0.545881
v -2.585102 0.000000 1.070785
v -2.326530 0.000000 1.554538
v -1.978552 0.000000 1.978552
v -1.554538 0.000000 2.326530
v -1.070785 0.000000 2.585102
v -0.545881 0.000000 2.744330
v 0.000000 0.000000 2.798095
v 0.545881 0.000000 2.744330
v 1.070785 0.000000 2.585102
v 1.554538 0.000000 2.326530
v 1.978552 0.000000 1.978552
v 2.326530 0.000000 1.554538
v 2.585102 0.000000 1.070785
v 2.744330 0.000000 0.545881
v 2.798095 0.000000 -0.000000
v 2.744330 0.000000 -0.545881
v 2.585102 0.000000 -1.070785
v 2.326530 0.000000 -1.554538
v 1.978552 0.000000 -1.978552
v 1.554538 0.000000 -2.326530
v 1.070785 0.000000 -2.585102
v 0.545881 0.000000 -2.744330
v -0.273126 0.095256 -1.373099
v 0.000000 0.095256 -1.400000
v -0.535757 0.095256 -1.293431
v -0.777798 0.095256 -1.164057
v -0.989950 0.095256 -0.989950
v -1.164057 0.095256 -0.777798
v -1.293431 0.095256 -0.535757
v -1.373099 0.095256 -0.273126
v -1.400000 0.095256 0.000000
v -1.373099 0.095256 0.273126
v -1.293431 0.095256 0.535757
v -1.164057 0.095256 0.777798
v -0.989950 0.095256 0.989950
v -0.777798 0.095256 1.164057
v -0.535757 0.095256 1.293431
v -0.273126 0.095256 1.373099
v 0.000000 0.095256 1.400000
v 0.273126 0.095256 1.373099
v 0.535757 0.095256 1.293431
v 0.777798 0.095256 1.164057
v 0.989950 0.095256 0.989950
v 1.164057 0.095256 0.777798
v 1.293431 0.095256 0.535757
v 1.373099 0.095256 0.273126
v 1.400000 0.095256 0.000000
v 1.373099 0.095256 -0.273126
v 1.293431 0.095256 -0.535757
v 1.164057 0.095256 -0.777798
v 0.989950 0.095256 -0.989950
v 0.777798 0.095256 -1.164057
v 0.535757 0.095256 -1.293431
v 0.273126 0.095256 -1.373099
v -0.545881 0.095256 -2.744330
v 0.000000 0.095256 -2.798095
v -1.070785 0.095256 -2.585102
v -1.554538 0.095256 -2.326530
v -1.978552 0.095256 -1.978552
v -2.326530 0.095256 -1.554538
v -2.585102 0.095256 -1.070785
v -2.744330 0.095256 -0.545881
v -2.798095 0.095256 -0.000000
v -2.744330 0.095256 0.545881
v -2.585102 0.095256 1.070785
v -2.326530 0.095256 1.554538
v -1.978552 0.095256 1.978552
v -1.554538 0.095256 2.326530
v -1.070785 0.095256 2.585102
v -0.545881 0.095256 2.744330
v 0.000000 0.095256 2.798095
v 0.545881 0.095256 2.744330
v 1.070785 0.095256 2.585102
v 1.554538 0.095256 2.326530
v 1.978552 0.095256 1.978552
v 2.326530 0.095256 1.554538
v 2.585102 0.095256 1.070785
v 2.744330 0.095256 0.545881
v 2.798095 0.095256 -0.000000
v 2.744330 0.095256 -0.545881
v 2.585102 0.095256 -1.070785
v 2.326530 0.095256 -1.554538
v 1.978552 0.095256 -1.978552
v 1.554538 0.095256 -2.326530
v 1.070785 0.095256 -2.585102
v 0.545881 0.095256 -2.744330
v -0.273126 -0.098054 -1.373099
v 0.000000 -0.098054 -1.400000
v -0.535757 -0.098054 -1.293431
v -0.777798 -0.098054 -1.164057
v -0.989950 -0.098054 -0.989950
v -1.164057 -0.098054 -0.777798
v -1.293431 -0.098054 -0.535757
v -1.373099 -0.098054 -0.273126
v -1.400000 -0.098054 0.000000
v -1.373099 -0.098054 0.273126
v -1.293431 -0.098054 0.535757
v -1.164057 -0.098054 0.777798
v -0.989950 -0.098054 0.989950
v -0.777798 -0.098054 1.164057
v -0.535757 -0.098054 1.293431
v -0.273126 -0.098054 1.373099
v 0.000000 -0.098054 1.400000
v 0.273126 -0.098054 1.373099
v 0.535757 -0.098054 1.293431
v 0.777798 -0.098054 1.164057
v 0.989950 -0.098054 0.989950
v 1.164057 -0.098054 0.777798
v 1.293431 -0.098054 0.535757
v 1.373099 -0.098054 0.273126
v 1.400000 -0.098054 0.000000
v 1.373099 -0.098054 -0.273126
v 1.293431 -0.098054 -0.535757
v 1.164057 -0.098054 -0.777798
v 0.989950 -0.098054 -0.989950
v 0.777798 -0.098054 -1.164057
v 0.535757 -0.098054 -1.293431
v 0.273126 -0.098054 -1.373099
v -0.545881 -0.098054 -2.744330
v 0.000000 -0.098054 -2.798095
v -1.070785 -0.098054 -2.585102
v -1.554538 -0.098054 -2.326530
v -1.978552 -0.098054 -1.978552
v -2.326530 -0.098054 -1.554538
v -2.585102 -0.098054 -1.070785
v -2.744330 -0.098054 -0.545881
v -2.798095 -0.098054 -0.000000
v -2.744330 -0.098054 0.545881
v -2.585102 -0.098054 1.070785
v -2.326530 -0.098054 1.554538
v -1.978552 -0.098054 1.978552
v -1.554538 -0.098054 2.326530
v -1.070785 -0.098054 2.585102
v -0.545881 -0.098054 2.744330
v 0.000000 -0.098054 2.798095
v 0.545881 -0.098054 2.744330
v 1.070785 -0.098054 2.585102
v 1.554538 -0.098054 2.326530
v 1.978552 -0.098054 1.978552
v 2.326530 -0.098054 1.554538
v 2.585102 -0.098054 1.070785
v 2.744330 -0.098054 0.545881
v 2.798095 -0.098054 -0.000000
v 2.744330 -0.098054 -0.545881
v 2.585102 -0.098054 -1.070785
v 2.326530 -0.098054 -1.554538
v 1.978552 -0.098054 -1.978552
v 1.554538 -0.098054 -2.326530
v 1.070785 -0.098054 -2.585102
v 0.545881 -0.098054 -2.744330
vn -0.4714 -0.0000 -0.8819
vn 0.6344 -0.0000 -0.7730
vn 0.9952 -0.0000 0.0980
vn -0.2903 -0.0000 -0.9569
vn 0.7730 -0.0000 -0.6344
vn 0.9569 -0.0000 0.2903
vn -0.0980 -0.0000 -0.9952
vn 0.8819 -0.0000 -0.4714
vn 0.8819 -0.0000 0.4714
vn -0.0980 -0.0000 0.9952
vn 0.9569 -0.0000 -0.2903
vn 0.7730 -0.0000 0.6344
vn -0.2903 -0.0000 0.9569
vn 0.9952 -0.0000 -0.0980
vn 0.6344 -0.0000 0.7730
vn -0.4714 -0.0000 0.8819
vn 0.4714 -0.0000 0.8819
vn -0.6344 -0.0000 0.7730
vn 0.2903 -0.0000 0.9569
vn -0.7730 -0.0000 0.6344
vn 0.0980 -0.0000 0.9952
vn -0.8819 -0.0000 0.4714
vn -0.9569 -0.0000 0.2903
vn -0.9952 -0.0000 0.0980
vn -0.9952 -0.0000 -0.0980
vn -0.0000 1.0000 -0.0000
vn 0.4714 -0.0000 -0.8819
vn -0.6344 -0.0000 -0.7730
vn 0.2903 -0.0000 -0.9569
vn -0.7730 -0.0000 -0.6344
vn 0.0980 -0.0000 -0.9952
vn -0.8819 -0.0000 -0.4714
vn -0.9569 -0.0000 -0.2903
vn -0.0000 -1.0000 -0.0000
vt 0.000000 0.000000
s 0
usemtl Material.003
f 36/1/1 35/1/1 163/1/1 164/1/1
f 62/1/2 61/1/2 189/1/2 190/1/2
f 8/1/3 9/1/3 137/1/3 136/1/3
f 35/1/4 34/1/4 161/1/4 163/1/4
f 61/1/5 60/1/5 188/1/5 189/1/5
f 7/1/6 8/1/6 136/1/6 135/1/6
f 34/1/7 33/1/7 162/1/7 161/1/7
f 60/1/8 59/1/8 187/1/8 188/1/8
f 6/1/9 7/1/9 135/1/9 134/1/9
f 32/1/10 1/1/10 130/1/10 160/1/10
f 59/1/11 58/1/11 186/1/11 187/1/11
f 5/1/12 6/1/12 134/1/12 133/1/12
f 31/1/13 32/1/13 160/1/13 159/1/13
f 58/1/14 57/1/14 185/1/14 186/1/14
f 4/1/15 5/1/15 133/1/15 132/1/15
f 30/1/16 31/1/16 159/1/16 158/1/16
f 57/1/3 56/1/3 184/1/3 185/1/3
f 3/1/17 4/1/17 132/1/17 131/1/17
f 29/1/18 30/1/18 158/1/18 157/1/18
f 56/1/6 55/1/6 183/1/6 184/1/6
f 2/1/19 3/1/19 131/1/19 129/1/19
f 28/1/20 29/1/20 157/1/20 156/1/20
f 55/1/9 54/1/9 182/1/9 183/1/9
f 1/1/21 2/1/21 129/1/21 130/1/21
f 27/1/22 28/1/22 156/1/22 155/1/22
f 54/1/12 53/1/12 181/1/12 182/1/12
f 26/1/23 27/1/23 155/1/23 154/1/23
f 53/1/15 52/1/15 180/1/15 181/1/15
f 25/1/24 26/1/24 154/1/24 153/1/24
f 52/1/17 51/1/17 179/1/17 180/1/17
f 24/1/25 25/1/25 153/1/25 152/1/25
f 51/1/19 50/1/19 178/1/19 179/1/19
f 67/1/26 65/1/26 97/1/26 99/1/26
f 94/1/26 93/1/26 125/1/26 126/1/26
f 81/1/26 80/1/26 112/1/26 113/1/26
f 68/1/26 67/1/26 99/1/26 100/1/26
f 95/1/26 94/1/26 126/1/26 127/1/26
f 82/1/26 81/1/26 113/1/26 114/1/26
f 69/1/26 68/1/26 100/1/26 101/1/26
f 96/1/26 95/1/26 127/1/26 128/1/26
f 83/1/26 82/1/26 114/1/26 115/1/26
f 70/1/26 69/1/26 101/1/26 102/1/26
f 66/1/26 96/1/26 128/1/26 98/1/26
f 84/1/26 83/1/26 115/1/26 116/1/26
f 71/1/26 70/1/26 102/1/26 103/1/26
f 85/1/26 84/1/26 116/1/26 117/1/26
f 72/1/26 71/1/26 103/1/26 104/1/26
f 86/1/26 85/1/26 117/1/26 118/1/26
f 73/1/26 72/1/26 104/1/26 105/1/26
f 87/1/26 86/1/26 118/1/26 119/1/26
f 74/1/26 73/1/26 105/1/26 106/1/26
f 88/1/26 87/1/26 119/1/26 120/1/26
f 75/1/26 74/1/26 106/1/26 107/1/26
f 89/1/26 88/1/26 120/1/26 121/1/26
f 76/1/26 75/1/26 107/1/26 108/1/26
f 90/1/26 89/1/26 121/1/26 122/1/26
f 77/1/26 76/1/26 108/1/26 109/1/26
f 91/1/26 90/1/26 122/1/26 123/1/26
f 78/1/26 77/1/26 109/1/26 110/1/26
f 92/1/26 91/1/26 123/1/26 124/1/26
f 79/1/26 78/1/26 110/1/26 111/1/26
f 65/1/26 66/1/26 98/1/26 97/1/26
f 93/1/26 92/1/26 124/1/26 125/1/26
f 80/1/26 79/1/26 111/1/26 112/1/26
f 50/1/19 51/1/19 115/1/19 114/1/19
f 25/1/25 24/1/25 88/1/25 89/1/25
f 51/1/17 52/1/17 116/1/17 115/1/17
f 26/1/24 25/1/24 89/1/24 90/1/24
f 52/1/15 53/1/15 117/1/15 116/1/15
f 27/1/23 26/1/23 90/1/23 91/1/23
f 53/1/12 54/1/12 118/1/12 117/1/12
f 28/1/22 27/1/22 91/1/22 92/1/22
f 2/1/21 1/1/21 66/1/21 65/1/21
f 54/1/9 55/1/9 119/1/9 118/1/9
f 29/1/20 28/1/20 92/1/20 93/1/20
f 3/1/19 2/1/19 65/1/19 67/1/19
f 55/1/6 56/1/6 120/1/6 119/1/6
f 30/1/18 29/1/18 93/1/18 94/1/18
f 4/1/17 3/1/17 67/1/17 68/1/17
f 56/1/3 57/1/3 121/1/3 120/1/3
f 31/1/16 30/1/16 94/1/16 95/1/16
f 5/1/15 4/1/15 68/1/15 69/1/15
f 57/1/14 58/1/14 122/1/14 121/1/14
f 32/1/13 31/1/13 95/1/13 96/1/13
f 6/1/12 5/1/12 69/1/12 70/1/12
f 58/1/11 59/1/11 123/1/11 122/1/11
f 1/1/10 32/1/10 96/1/10 66/1/10
f 7/1/9 6/1/9 70/1/9 71/1/9
f 59/1/8 60/1/8 124/1/8 123/1/8
f 33/1/7 34/1/7 97/1/7 98/1/7
f 8/1/6 7/1/6 71/1/6 72/1/6
f 60/1/5 61/1/5 125/1/5 124/1/5
f 34/1/4 35/1/4 99/1/4 97/1/4
f 9/1/3 8/1/3 72/1/3 73/1/3
f 61/1/2 62/1/2 126/1/2 125/1/2
f 35/1/1 36/1/1 100/1/1 99/1/1
f 10/1/14 9/1/14 73/1/14 74/1/14
f 62/1/27 63/1/27 127/1/27 126/1/27
f 36/1/28 37/1/28 101/1/28 100/1/28
f 11/1/11 10/1/11 74/1/11 75/1/11
f 63/1/29 64/1/29 128/1/29 127/1/29
f 37/1/30 38/1/30 102/1/30 101/1/30
f 12/1/8 11/1/8 75/1/8 76/1/8
f 64/1/31 33/1/31 98/1/31 128/1/31
f 38/1/32 39/1/32 103/1/32 102/1/32
f 13/1/5 12/1/5 76/1/5 77/1/5
f 39/1/33 40/1/33 104/1/33 103/1/33
f 14/1/2 13/1/2 77/1/2 78/1/2
f 40/1/25 41/1/25 105/1/25 104/1/25
f 15/1/27 14/1/27 78/1/27 79/1/27
f 41/1/24 42/1/24 106/1/24 105/1/24
f 16/1/29 15/1/29 79/1/29 80/1/29
f 42/1/23 43/1/23 107/1/23 106/1/23
f 17/1/31 16/1/31 80/1/31 81/1/31
f 43/1/22 44/1/22 108/1/22 107/1/22
f 18/1/7 17/1/7 81/1/7 82/1/7
f 44/1/20 45/1/20 109/1/20 108/1/20
f 19/1/4 18/1/4 82/1/4 83/1/4
f 45/1/18 46/1/18 110/1/18 109/1/18
f 20/1/1 19/1/1 83/1/1 84/1/1
f 46/1/16 47/1/16 111/1/16 110/1/16
f 21/1/28 20/1/28 84/1/28 85/1/28
f 47/1/13 48/1/13 112/1/13 111/1/13
f 22/1/30 21/1/30 85/1/30 86/1/30
f 48/1/10 49/1/10 113/1/10 112/1/10
f 23/1/32 22/1/32 86/1/32 87/1/32
f 49/1/21 50/1/21 114/1/21 113/1/21
f 24/1/33 23/1/33 87/1/33 88/1/33
f 131/1/34 163/1/34 161/1/34 129/1/34
f 158/1/34 190/1/34 189/1/34 157/1/34
f 145/1/34 177/1/34 176/1/34 144/1/34
f 132/1/34 164/1/34 163/1/34 131/1/34
f 159/1/34 191/1/34 190/1/34 158/1/34
f 146/1/34 178/1/34 177/1/34 145/1/34
f 133/1/34 165/1/34 164/1/34 132/1/34
f 160/1/34 192/1/34 191/1/34 159/1/34
f 147/1/34 179/1/34 178/1/34 146/1/34
f 134/1/34 166/1/34 165/1/34 133/1/34
f 130/1/34 162/1/34 192/1/34 160/1/34
f 148/1/34 180/1/34 179/1/34 147/1/34
f 135/1/34 167/1/34 166/1/34 134/1/34
f 149/1/34 181/1/34 180/1/34 148/1/34
f 136/1/34 168/1/34 167/1/34 135/1/34
f 150/1/34 182/1/34 181/1/34 149/1/34
f 137/1/34 169/1/34 168/1/34 136/1/34
f 151/1/34 183/1/34 182/1/34 150/1/34
f 138/1/34 170/1/34 169/1/34 137/1/34
f 152/1/34 184/1/34 183/1/34 151/1/34
f 139/1/34 171/1/34 170/1/34 138/1/34
f 153/1/34 185/1/34 184/1/34 152/1/34
f 140/1/34 172/1/34 171/1/34 139/1/34
f 154/1/34 186/1/34 185/1/34 153/1/34
f 141/1/34 173/1/34 172/1/34 140/1/34
f 155/1/34 187/1/34 186/1/34 154/1/34
f 142/1/34 174/1/34 173/1/34 141/1/34
f 156/1/34 188/1/34 187/1/34 155/1/34
f 143/1/34 175/1/34 174/1/34 142/1/34
f 129/1/34 161/1/34 162/1/34 130/1/34
f 157/1/34 189/1/34 188/1/34 156/1/34
f 144/1/34 176/1/34 175/1/34 143/1/34
f 9/1/14 10/1/14 138/1/14 137/1/14
f 63/1/27 62/1/27 190/1/27 191/1/27
f 37/1/28 36/1/28 164/1/28 165/1/28
f 10/1/11 11/1/11 139/1/11 138/1/11
f 64/1/29 63/1/29 191/1/29 192/1/29
f 38/1/30 37/1/30 165/1/30 166/1/30
f 11/1/8 12/1/8 140/1/8 139/1/8
f 33/1/31 64/1/31 192/1/31 162/1/31
f 39/1/32 38/1/32 166/1/32 167/1/32
f 12/1/5 13/1/5 141/1/5 140/1/5
f 40/1/33 39/1/33 167/1/33 168/1/33
f 13/1/2 14/1/2 142/1/2 141/1/2
f 41/1/25 40/1/25 168/1/25 169/1/25
f 14/1/27 15/1/27 143/1/27 142/1/27
f 42/1/24 41/1/24 169/1/24 170/1/24
f 15/1/29 16/1/29 144/1/29 143/1/29
f 43/1/23 42/1/23 170/1/23 171/1/23
f 16/1/31 17/1/31 145/1/31 144/1/31
f 44/1/22 43/1/22 171/1/22 172/1/22
f 17/1/7 18/1/7 146/1/7 145/1/7
f 45/1/20 44/1/20 172/1/20 173/1/20
f 18/1/4 19/1/4 147/1/4 146/1/4
f 46/1/18 45/1/18 173/1/18 174/1/18
f 19/1/1 20/1/1 148/1/1 147/1/1
f 47/1/16 46/1/16 174/1/16 175/1/16
f 20/1/28 21/1/28 149/1/28 148/1/28
f 48/1/13 47/1/13 175/1/13 176/1/13
f 21/1/30 22/1/30 150/1/30 149/1/30
f 49/1/10 48/1/10 176/1/10 177/1/10
f 22/1/32 23/1/32 151/1/32 150/1/32
f 50/1/21 49/1/21 177/1/21 178/1/21
f 23/1/33 24/1/33 152/1/33 151/1/33
